<?xml version="1.0" encoding="UTF-8"?>
<svg width="286px" height="38px" viewBox="0 0 286 38" version="1.1" xmlns="http://www.w3.org/2000/svg" xmlns:xlink="http://www.w3.org/1999/xlink">
    <!-- Generator: Sketch 61.2 (89653) - https://sketch.com -->
    <title>Group 16</title>
    <desc>Created with Sketch.</desc>
    <defs>
        <polygon id="path-1" points="0 0.0302436358 9.79760254 0.0302436358 9.79760254 6.96933966 0 6.96933966"></polygon>
    </defs>
    <g id="Page-1" stroke="none" stroke-width="1" fill="none" fill-rule="evenodd">
        <g id="Group-16" transform="translate(-1.000000, 0.000000)">
            <path d="M15.9005362,36.4176854 C15.2353306,37.2332698 14.0305301,37.3579959 13.2096381,36.6972132 C12.3878615,36.035546 12.2622509,34.8387067 12.9274565,34.0231222 C13.5926621,33.2075377 14.7974626,33.0819271 15.6183546,33.7427098 C16.4392465,34.404377 16.5657417,35.6012163 15.9005362,36.4176854 M46.26204,29.7603221 C40.7404799,37.067853 28.949888,34.6034079 21.3893667,34.9554715 C21.3893667,34.9554715 20.0509943,35.0315456 18.702007,35.2535756 C18.702007,35.2535756 19.2124107,35.0359685 19.8625784,34.8121692 C25.1718388,32.9872768 27.6813976,32.6201754 30.9092369,30.9739685 C36.9695073,27.8876623 43.0058941,21.1666092 44.2301554,14.1819507 C41.9231659,20.8985809 34.9048932,26.6793235 28.5155583,29.0278883 C24.1404164,30.6307507 16.2322544,32.1911531 16.2322544,32.1911531 C16.2357927,32.1973452 15.9173432,32.0275055 15.9111512,32.0230826 C10.5337779,29.4232964 10.3780915,17.8450042 20.1474138,14.1129533 C24.4314438,12.4747077 28.5288271,13.375212 33.1587286,12.2792151 C38.0973492,11.1142207 43.8152865,7.43436012 46.1399677,2.62311929 C48.7468305,10.3065975 51.8773657,22.3245269 46.26204,29.7603221" id="Fill-1" fill="#67B546"></path>
            <path d="M77.48,33 L77.48,32.96 L74.48,18.96 C74.3733333,18.5066667 74.2266667,17.8933333 74.04,17.12 C73.8533333,16.3466667 73.6533333,15.4933333 73.44,14.56 C73.2266667,13.6266667 73.0066667,12.6533333 72.78,11.64 C72.5533333,10.6266667 72.34,9.67333333 72.14,8.78 C71.94,7.88666667 71.7533333,7.08666667 71.58,6.38 C71.4066667,5.67333333 71.28,5.14666667 71.2,4.8 C70.32,4.88 69.6066667,4.92666667 69.06,4.94 C68.6044444,4.95111111 68.2183333,4.95759259 67.9016667,4.95944444 L66.88,4.96 L66.88,4.96 C66.6666667,4.96 66.4666667,4.97333333 66.28,5 C65.64,7.13333333 65.0533333,9.28 64.52,11.44 C63.9866667,13.6 63.4933333,15.68 63.04,17.68 C62.5866667,19.68 62.1933333,21.5666667 61.86,23.34 C61.5266667,25.1133333 61.24,26.68 61,28.04 C60.76,29.4 60.5733333,30.5066667 60.44,31.36 C60.3066667,32.2133333 60.2133333,32.7333333 60.16,32.92 C60.1866667,32.9466667 60.2133333,32.96 60.24,32.96 C62.0533333,32.9333333 63.3866667,32.9466667 64.24,33 C65.0933333,33.0533333 65.6266667,33.0533333 65.84,33 C65.8666667,33 65.8866667,32.9933333 65.9,32.98 C65.9133333,32.9666667 65.9333333,32.96 65.96,32.96 C66.2,32.5066667 66.3866667,31.9866667 66.52,31.4 C66.6533333,30.8133333 66.78,30.2066667 66.9,29.58 C67.02,28.9533333 67.14,28.3533333 67.26,27.78 C67.38,27.2066667 67.5333333,26.7066667 67.72,26.28 C68.0133333,26.28 68.2466667,26.2733333 68.42,26.26 C68.5933333,26.2466667 68.7533333,26.24 68.9,26.24 L69.4,26.24 L69.4,26.24 C69.5866667,26.24 69.8533333,26.2666667 70.2,26.32 C70.3866667,26.72 70.56,27.2 70.72,27.76 C70.88,28.32 71.0333333,28.9066667 71.18,29.52 C71.3266667,30.1333333 71.4733333,30.7333333 71.62,31.32 C71.7666667,31.9066667 71.92,32.4133333 72.08,32.84 L72.12,32.84 C72.9733333,33.0266667 73.88,33.14 74.84,33.18 C75.8,33.22 76.68,33.16 77.48,33 Z M67.44,21.56 C67.6266667,20.2 67.7933333,18.9333333 67.94,17.76 C68.0866667,16.5866667 68.22,15.6133333 68.34,14.84 C68.46,14.0666667 68.5933333,13.5533333 68.74,13.3 C68.8866667,13.0466667 69.0333333,13.1466667 69.18,13.6 C69.3266667,14.0533333 69.5,14.92 69.7,16.2 C69.9,17.48 70.1333333,19.2666667 70.4,21.56 C69.8933333,21.56 69.3866667,21.5666667 68.88,21.58 C68.3733333,21.5933333 67.8933333,21.5866667 67.44,21.56 Z M83.587381,33.12 C83.9207143,33.0933333 84.3140476,33.0133333 84.767381,32.88 L84.767381,32.72 C84.8740476,31.84 84.927381,30.96 84.927381,30.08 C84.927381,29.2 84.907381,28.3133333 84.867381,27.42 C84.827381,26.5266667 84.7940476,25.6333333 84.767381,24.74 C84.7407143,23.8466667 84.7540476,22.9333333 84.807381,22 C84.8607143,21.28 85.047381,20.74 85.367381,20.38 C85.687381,20.02 86.047381,19.78 86.447381,19.66 C86.847381,19.54 87.2540476,19.5133333 87.667381,19.58 C88.0807143,19.6466667 88.3940476,19.7333333 88.607381,19.84 C88.6340476,19.8666667 88.6607143,19.88 88.687381,19.88 C88.7140476,19.88 88.7407143,19.8933333 88.767381,19.92 C88.9807143,20.08 89.147381,20.3066667 89.267381,20.6 C89.387381,20.8933333 89.4807143,21.2266667 89.547381,21.6 C89.6140476,21.9733333 89.6607143,22.3533333 89.687381,22.74 C89.7140476,23.1266667 89.7407143,23.48 89.767381,23.8 C89.8207143,24.52 89.8540476,25.2933333 89.867381,26.12 C89.8807143,26.9466667 89.8807143,27.7733333 89.867381,28.6 C89.8540476,29.4266667 89.847381,30.2266667 89.847381,31 C89.847381,31.7733333 89.8740476,32.4666667 89.927381,33.08 C90.8607143,33.08 91.6940476,33.0866667 92.427381,33.1 C93.1607143,33.1133333 93.9940476,33.0533333 94.927381,32.92 C94.8740476,32.0133333 94.8607143,30.96 94.887381,29.76 C94.9140476,28.56 94.9407143,27.3133333 94.967381,26.02 C94.9940476,24.7266667 95.0140476,23.4466667 95.027381,22.18 C95.0407143,20.9133333 95.027381,19.7466667 94.987381,18.68 C94.947381,17.6133333 94.8540476,16.7 94.707381,15.94 C94.5607143,15.18 94.3540476,14.68 94.087381,14.44 C93.527381,13.96 92.9007143,13.6266667 92.207381,13.44 C91.5140476,13.2533333 90.8007143,13.1733333 90.067381,13.2 C89.3340476,13.2266667 88.6207143,13.36 87.927381,13.6 C87.2340476,13.84 86.607381,14.16 86.047381,14.56 C85.9140476,14.6666667 85.747381,14.7733333 85.547381,14.88 C85.347381,14.9866667 85.1807143,15.08 85.047381,15.16 C85.0207143,14.7866667 85.0140476,14.4533333 85.027381,14.16 C85.0407143,13.8666667 85.0207143,13.4933333 84.967381,13.04 C84.967381,12.96 84.8607143,12.9133333 84.647381,12.9 C84.4340476,12.8866667 84.1940476,12.8933333 83.927381,12.92 C83.6607143,12.9466667 83.3940476,12.98 83.127381,13.02 C82.8607143,13.06 82.6740476,13.08 82.567381,13.08 C82.247381,13.1066667 81.9807143,13.1266667 81.767381,13.14 C81.5540476,13.1533333 81.3540476,13.16 81.167381,13.16 C80.9807143,13.16 80.7807143,13.1533333 80.567381,13.14 C80.3540476,13.1266667 80.087381,13.1066667 79.767381,13.08 C79.6607143,16.6 79.6407143,20 79.707381,23.28 C79.7740476,26.56 79.807381,29.84 79.807381,33.12 C80.447381,33.0666667 80.9807143,33.0533333 81.407381,33.08 C81.8340476,33.1066667 82.2207143,33.1266667 82.567381,33.14 C82.9140476,33.1533333 83.2540476,33.1466667 83.587381,33.12 Z M103.434762,9.72 C103.821429,9.66666667 104.068095,9.56 104.174762,9.4 C104.174762,9 104.168095,8.54 104.154762,8.02 C104.141429,7.5 104.128095,6.99333333 104.114762,6.5 C104.101429,6.00666667 104.088095,5.55333333 104.074762,5.14 C104.061429,4.72666667 104.054762,4.44 104.054762,4.28 L98.6147619,4.16 C98.5880952,5.38666667 98.6080952,6.42 98.6747619,7.26 C98.7414286,8.1 98.7747619,8.90666667 98.7747619,9.68 C99.2814286,9.65333333 99.8280952,9.66 100.414762,9.7 C101.001429,9.74 101.554762,9.76666667 102.074762,9.78 C102.594762,9.79333333 103.048095,9.77333333 103.434762,9.72 Z M103.174762,33.02 C103.708095,33.0066667 104.041429,32.92 104.174762,32.76 C103.988095,29.5333333 103.941429,26.24 104.034762,22.88 C104.128095,19.52 104.188095,16.2266667 104.214762,13 L104.214762,12.88 L103.534762,12.88 C102.681429,12.9066667 101.948095,12.9066667 101.334762,12.88 C100.721429,12.8533333 100.241429,12.8266667 99.8947619,12.8 C99.7614286,12.8 99.5680952,12.7866667 99.3147619,12.76 C99.0614286,12.7333333 98.8814286,12.7333333 98.7747619,12.76 L98.7747619,12.8 C98.6147619,14.3733333 98.5347619,15.9933333 98.5347619,17.66 C98.5347619,19.3266667 98.5614286,21.0133333 98.6147619,22.72 C98.6680952,24.4266667 98.7014286,26.1466667 98.7147619,27.88 C98.7280952,29.6133333 98.6680952,31.32 98.5347619,33 C98.7214286,32.9466667 99.0947619,32.9333333 99.6547619,32.96 C100.214762,32.9866667 100.808095,33.0066667 101.434762,33.02 C102.061429,33.0333333 102.641429,33.0333333 103.174762,33.02 Z M111.682143,33.12 C112.015476,33.0933333 112.40881,33.0133333 112.862143,32.88 L112.862143,32.72 C112.96881,31.84 113.022143,30.96 113.022143,30.08 C113.022143,29.2 113.002143,28.3133333 112.962143,27.42 C112.922143,26.5266667 112.88881,25.6333333 112.862143,24.74 C112.835476,23.8466667 112.84881,22.9333333 112.902143,22 C112.955476,21.28 113.142143,20.74 113.462143,20.38 C113.782143,20.02 114.142143,19.78 114.542143,19.66 C114.942143,19.54 115.34881,19.5133333 115.762143,19.58 C116.175476,19.6466667 116.48881,19.7333333 116.702143,19.84 C116.72881,19.8666667 116.755476,19.88 116.782143,19.88 C116.80881,19.88 116.835476,19.8933333 116.862143,19.92 C117.075476,20.08 117.242143,20.3066667 117.362143,20.6 C117.482143,20.8933333 117.575476,21.2266667 117.642143,21.6 C117.70881,21.9733333 117.755476,22.3533333 117.782143,22.74 C117.80881,23.1266667 117.835476,23.48 117.862143,23.8 C117.915476,24.52 117.94881,25.2933333 117.962143,26.12 C117.975476,26.9466667 117.975476,27.7733333 117.962143,28.6 C117.94881,29.4266667 117.942143,30.2266667 117.942143,31 C117.942143,31.7733333 117.96881,32.4666667 118.022143,33.08 C118.955476,33.08 119.78881,33.0866667 120.522143,33.1 C121.255476,33.1133333 122.08881,33.0533333 123.022143,32.92 C122.96881,32.12 122.94881,31.1933333 122.962143,30.14 C122.975476,29.0866667 122.995476,27.9933333 123.022143,26.86 C123.04881,25.7266667 123.075476,24.58 123.102143,23.42 C123.12881,22.26 123.12881,21.16 123.102143,20.12 C123.342143,19.9333333 123.602143,19.7933333 123.882143,19.7 C124.162143,19.6066667 124.442143,19.56 124.722143,19.56 C125.002143,19.56 125.262143,19.5866667 125.502143,19.64 C125.742143,19.6933333 125.942143,19.76 126.102143,19.84 C126.12881,19.8666667 126.155476,19.88 126.182143,19.88 C126.20881,19.88 126.235476,19.8933333 126.262143,19.92 C126.475476,20.08 126.642143,20.3066667 126.762143,20.6 C126.882143,20.8933333 126.975476,21.2266667 127.042143,21.6 C127.10881,21.9733333 127.155476,22.3533333 127.182143,22.74 C127.20881,23.1266667 127.235476,23.48 127.262143,23.8 C127.315476,24.52 127.34881,25.2933333 127.362143,26.12 C127.375476,26.9466667 127.375476,27.7733333 127.362143,28.6 C127.34881,29.4266667 127.342143,30.2266667 127.342143,31 C127.342143,31.7733333 127.36881,32.4666667 127.422143,33.08 C128.355476,33.08 129.18881,33.0866667 129.922143,33.1 C130.655476,33.1133333 131.48881,33.0533333 132.422143,32.92 C132.36881,32.0133333 132.355476,30.96 132.382143,29.76 C132.40881,28.56 132.435476,27.3133333 132.462143,26.02 C132.48881,24.7266667 132.50881,23.4466667 132.522143,22.18 C132.535476,20.9133333 132.522143,19.7466667 132.482143,18.68 C132.442143,17.6133333 132.34881,16.7 132.202143,15.94 C132.055476,15.18 131.84881,14.68 131.582143,14.44 C131.022143,13.96 130.395476,13.6266667 129.702143,13.44 C129.00881,13.2533333 128.295476,13.1733333 127.562143,13.2 C126.82881,13.2266667 126.115476,13.36 125.422143,13.6 C124.72881,13.84 124.102143,14.16 123.542143,14.56 C123.40881,14.6666667 123.24881,14.7666667 123.062143,14.86 C122.875476,14.9533333 122.715476,15.04 122.582143,15.12 C122.44881,14.8 122.315476,14.5733333 122.182143,14.44 C121.622143,13.96 120.995476,13.6266667 120.302143,13.44 C119.60881,13.2533333 118.895476,13.1733333 118.162143,13.2 C117.42881,13.2266667 116.715476,13.36 116.022143,13.6 C115.32881,13.84 114.702143,14.16 114.142143,14.56 C114.00881,14.6666667 113.842143,14.7733333 113.642143,14.88 C113.442143,14.9866667 113.275476,15.08 113.142143,15.16 C113.115476,14.7866667 113.10881,14.4533333 113.122143,14.16 C113.135476,13.8666667 113.115476,13.4933333 113.062143,13.04 C113.062143,12.96 112.955476,12.9133333 112.742143,12.9 C112.52881,12.8866667 112.28881,12.8933333 112.022143,12.92 C111.755476,12.9466667 111.48881,12.98 111.222143,13.02 C110.955476,13.06 110.76881,13.08 110.662143,13.08 C110.342143,13.1066667 110.075476,13.1266667 109.862143,13.14 C109.64881,13.1533333 109.44881,13.16 109.262143,13.16 C109.075476,13.16 108.875476,13.1533333 108.662143,13.14 C108.44881,13.1266667 108.182143,13.1066667 107.862143,13.08 C107.755476,16.6 107.735476,20 107.802143,23.28 C107.86881,26.56 107.902143,29.84 107.902143,33.12 C108.542143,33.0666667 109.075476,33.0533333 109.502143,33.08 C109.92881,33.1066667 110.315476,33.1266667 110.662143,33.14 C111.00881,33.1533333 111.34881,33.1466667 111.682143,33.12 Z M141.349524,33.08 C142.282857,33.08 143.23619,32.8533333 144.209524,32.4 C145.182857,31.9466667 145.989524,31.4 146.629524,30.76 C146.629524,31.0266667 146.602857,31.2533333 146.549524,31.44 C146.49619,31.6266667 146.469524,31.8666667 146.469524,32.16 C146.469524,32.3733333 146.502857,32.56 146.569524,32.72 C146.63619,32.88 146.762857,32.9866667 146.949524,33.04 C147.242857,33.04 147.529524,33.02 147.809524,32.98 C148.089524,32.94 148.37619,32.92 148.669524,32.92 C149.09619,32.92 149.529524,32.94 149.969524,32.98 C150.409524,33.02 150.842857,33.04 151.269524,33.04 L151.749524,33.04 C152.069524,32.9866667 152.23619,32.7866667 152.249524,32.44 C152.262857,32.0933333 152.269524,31.7466667 152.269524,31.4 C152.45619,28.5466667 152.49619,25.7266667 152.389524,22.94 C152.282857,20.1533333 152.269524,17.32 152.349524,14.44 L152.349524,14.04 C152.349524,13.88 152.342857,13.72 152.329524,13.56 C152.31619,13.4 152.29619,13.24 152.269524,13.08 C151.41619,13.0266667 150.662857,12.9866667 150.009524,12.96 C149.35619,12.9333333 148.802857,12.9066667 148.349524,12.88 L147.909524,12.88 L147.909524,12.88 C147.69619,12.88 147.482857,12.8733333 147.269524,12.86 C147.05619,12.8466667 146.862857,12.8466667 146.689524,12.86 C146.51619,12.8733333 146.429524,12.8933333 146.429524,12.92 C146.429524,13.24 146.39619,13.5533333 146.329524,13.86 C146.262857,14.1666667 146.242857,14.5333333 146.269524,14.96 C146.082857,14.5066667 145.85619,14.1533333 145.589524,13.9 C145.322857,13.6466667 145.01619,13.46 144.669524,13.34 C144.322857,13.22 143.942857,13.1533333 143.529524,13.14 C143.11619,13.1266667 142.669524,13.12 142.189524,13.12 C141.25619,13.1466667 140.37619,13.3933333 139.549524,13.86 C138.722857,14.3266667 138.009524,14.9666667 137.409524,15.78 C136.809524,16.5933333 136.33619,17.56 135.989524,18.68 C135.642857,19.8 135.469524,21.0266667 135.469524,22.36 C135.469524,23.4266667 135.582857,24.5866667 135.809524,25.84 C136.03619,27.0933333 136.389524,28.2533333 136.869524,29.32 C137.349524,30.3866667 137.95619,31.28 138.689524,32 C139.422857,32.72 140.309524,33.08 141.349524,33.08 Z M143.949524,27.48 C142.829524,27.48 141.95619,27.06 141.329524,26.22 C140.702857,25.38 140.389524,24.36 140.389524,23.16 C140.389524,22.8133333 140.402857,22.46 140.429524,22.1 C140.45619,21.74 140.522857,21.3866667 140.629524,21.04 C140.762857,20.3733333 141.142857,19.78 141.769524,19.26 C142.39619,18.74 143.25619,18.48 144.349524,18.48 C144.909524,18.48 145.329524,18.52 145.609524,18.6 C145.889524,18.68 146.089524,18.8666667 146.209524,19.16 C146.329524,19.4533333 146.39619,19.8733333 146.409524,20.42 C146.422857,20.9666667 146.429524,21.7066667 146.429524,22.64 C146.429524,23.3866667 146.422857,24.06 146.409524,24.66 C146.39619,25.26 146.31619,25.7666667 146.169524,26.18 C146.022857,26.5933333 145.782857,26.9133333 145.449524,27.14 C145.11619,27.3666667 144.61619,27.48 143.949524,27.48 Z M160.636905,33.02 C161.170238,33.0066667 161.503571,32.92 161.636905,32.76 C161.583571,31.6933333 161.543571,30.3933333 161.516905,28.86 C161.490238,27.3266667 161.476905,25.68 161.476905,23.92 C161.476905,22.16 161.483571,20.3333333 161.496905,18.44 C161.510238,16.5466667 161.530238,14.72 161.556905,12.96 C161.583571,11.2 161.610238,9.54666667 161.636905,8 C161.663571,6.45333333 161.676905,5.13333333 161.676905,4.04 L156.236905,3.92 C155.996905,6.34666667 155.883571,8.77333333 155.896905,11.2 C155.910238,13.6266667 155.956905,16.0533333 156.036905,18.48 C156.116905,20.9066667 156.176905,23.3333333 156.216905,25.76 C156.256905,28.1866667 156.183571,30.6 155.996905,33 C156.183571,32.9466667 156.556905,32.9333333 157.116905,32.96 C157.676905,32.9866667 158.270238,33.0066667 158.896905,33.02 C159.523571,33.0333333 160.103571,33.0333333 160.636905,33.02 Z M177.371667,33.02 C178.091667,33.0066667 178.818333,32.9733333 179.551667,32.92 C180.285,32.8666667 180.878333,32.7466667 181.331667,32.56 C181.305,32.0533333 181.265,31.3733333 181.211667,30.52 C181.158333,29.6666667 181.111667,28.7666667 181.071667,27.82 C181.031667,26.8733333 181.011667,25.9533333 181.011667,25.06 C181.011667,24.1666667 181.051667,23.4133333 181.131667,22.8 L181.211667,22.92 C181.771667,23.6133333 182.331667,24.4133333 182.891667,25.32 C183.451667,26.2266667 183.971667,27.1466667 184.451667,28.08 C184.931667,29.0133333 185.371667,29.9066667 185.771667,30.76 C186.171667,31.6133333 186.505,32.3466667 186.771667,32.96 L186.811667,32.96 C188.011667,33.04 189.185,33.0466667 190.331667,32.98 C191.478333,32.9133333 192.518333,32.88 193.451667,32.88 L193.411667,32.88 C193.011667,31.7866667 192.518333,30.7266667 191.931667,29.7 C191.345,28.6733333 190.731667,27.6666667 190.091667,26.68 C189.451667,25.6933333 188.798333,24.7133333 188.131667,23.74 C187.465,22.7666667 186.851667,21.7866667 186.291667,20.8 L186.291667,20.76 L186.491667,20.76 C187.771667,20.68 188.831667,20.32 189.671667,19.68 C190.511667,19.04 191.185,18.24 191.691667,17.28 C192.518333,15.8933333 192.911667,14.46 192.871667,12.98 C192.831667,11.5 192.465,10.1466667 191.771667,8.92 C191.078333,7.69333333 190.105,6.66666667 188.851667,5.84 C187.598333,5.01333333 186.185,4.56 184.611667,4.48 C182.665,4.26666667 180.798333,4.25333333 179.011667,4.44 C177.225,4.62666667 175.585,4.82666667 174.091667,5.04 C174.145,5.38666667 174.191667,6.04666667 174.231667,7.02 C174.271667,7.99333333 174.305,9.16666667 174.331667,10.54 C174.358333,11.9133333 174.391667,13.42 174.431667,15.06 C174.471667,16.7 174.498333,18.3533333 174.511667,20.02 C174.525,21.6866667 174.531667,23.3 174.531667,24.86 L174.531667,29 C174.531667,30.2 174.518333,31.1666667 174.491667,31.9 C174.465,32.6333333 174.425,33 174.371667,33 C174.505,32.9733333 174.858333,32.9733333 175.431667,33 C176.005,33.0266667 176.651667,33.0333333 177.371667,33.02 Z M182.171667,15.68 C181.451667,15.6533333 180.785,15.6133333 180.171667,15.56 L180.131667,15.56 C180.078333,15.2666667 180.045,14.9066667 180.031667,14.48 C180.018333,14.0533333 180.011667,13.6133333 180.011667,13.16 C180.011667,12.7066667 180.005,12.26 179.991667,11.82 C179.978333,11.38 179.958333,10.9866667 179.931667,10.64 C180.865,10.2666667 181.785,10.06 182.691667,10.02 C183.598333,9.98 184.345,10.2266667 184.931667,10.76 C185.305,11.0533333 185.571667,11.4466667 185.731667,11.94 C185.891667,12.4333333 185.945,12.9266667 185.891667,13.42 C185.838333,13.9133333 185.671667,14.3666667 185.391667,14.78 C185.111667,15.1933333 184.718333,15.4533333 184.211667,15.56 C183.571667,15.6666667 182.891667,15.7066667 182.171667,15.68 Z M205.619048,33.48 C206.472381,33.4266667 207.259048,33.2666667 207.979048,33 C208.699048,32.7333333 209.285714,32.28 209.739048,31.64 C209.925714,31.48 210.079048,31.1933333 210.199048,30.78 C210.319048,30.3666667 210.419048,29.8733333 210.499048,29.3 C210.579048,28.7266667 210.645714,28.1066667 210.699048,27.44 C210.752381,26.7733333 210.805714,26.0933333 210.859048,25.4 C210.565714,25.32 210.192381,25.2733333 209.739048,25.26 C209.285714,25.2466667 208.812381,25.2533333 208.319048,25.28 C207.825714,25.3066667 207.352381,25.3266667 206.899048,25.34 C206.445714,25.3533333 206.085714,25.3466667 205.819048,25.32 C205.872381,26.4133333 205.705714,27.2333333 205.319048,27.78 C204.932381,28.3266667 204.459048,28.6533333 203.899048,28.76 C203.339048,28.8666667 202.765714,28.7733333 202.179048,28.48 C201.592381,28.1866667 201.139048,27.7333333 200.819048,27.12 C200.525714,26.64 200.359048,26.1466667 200.319048,25.64 C200.279048,25.1333333 200.245714,24.48 200.219048,23.68 L200.219048,22.96 C200.485714,23.0133333 200.912381,23.0533333 201.499048,23.08 C202.085714,23.1066667 202.745714,23.12 203.479048,23.12 C204.212381,23.12 204.979048,23.1066667 205.779048,23.08 C206.579048,23.0533333 207.332381,23.0133333 208.039048,22.96 C208.745714,22.9066667 209.359048,22.8533333 209.879048,22.8 C210.399048,22.7466667 210.752381,22.6933333 210.939048,22.64 C211.019048,21.52 211.019048,20.4133333 210.939048,19.32 C210.859048,18.2266667 210.625714,17.2266667 210.239048,16.32 C209.852381,15.4133333 209.285714,14.64 208.539048,14 C207.792381,13.36 206.805714,12.9333333 205.579048,12.72 C204.619048,12.48 203.632381,12.3733333 202.619048,12.4 C201.605714,12.4266667 200.645714,12.58 199.739048,12.86 C198.832381,13.14 198.019048,13.5533333 197.299048,14.1 C196.579048,14.6466667 196.045714,15.3066667 195.699048,16.08 C195.379048,16.96 195.172381,17.86 195.079048,18.78 C194.985714,19.7 194.899048,20.6533333 194.819048,21.64 C194.765714,22.7333333 194.792381,23.8266667 194.899048,24.92 C195.005714,26.0133333 195.205714,27.0466667 195.499048,28.02 C195.792381,28.9933333 196.179048,29.8866667 196.659048,30.7 C197.139048,31.5133333 197.739048,32.1733333 198.459048,32.68 C199.099048,33.0533333 199.792381,33.2933333 200.539048,33.4 C201.285714,33.4 202.105714,33.4266667 202.999048,33.48 C203.892381,33.5333333 204.765714,33.5333333 205.619048,33.48 Z M205.659048,19.88 C205.312381,19.8533333 204.792381,19.84 204.099048,19.84 C203.085714,19.84 202.319048,19.8466667 201.799048,19.86 C201.279048,19.8733333 200.899048,19.86 200.659048,19.82 C200.419048,19.78 200.292381,19.7 200.279048,19.58 C200.265714,19.46 200.285714,19.2533333 200.339048,18.96 C200.392381,18.6133333 200.479048,18.28 200.599048,17.96 C200.719048,17.64 200.899048,17.36 201.139048,17.12 C201.379048,16.88 201.699048,16.6933333 202.099048,16.56 C202.499048,16.4266667 203.019048,16.36 203.659048,16.36 C203.952381,16.36 204.205714,16.3933333 204.419048,16.46 C204.632381,16.5266667 204.845714,16.6266667 205.059048,16.76 C205.539048,17 205.919048,17.36 206.199048,17.84 C206.479048,18.32 206.619048,18.8266667 206.619048,19.36 L206.619048,19.78 L206.619048,19.78 C206.619048,19.8466667 206.545714,19.8866667 206.399048,19.9 C206.252381,19.9133333 206.005714,19.9066667 205.659048,19.88 Z M222.106429,33.64 C223.653095,33.6666667 225.079762,33.4 226.386429,32.84 C227.693095,32.28 228.653095,31.3466667 229.266429,30.04 C229.773095,28.5733333 229.959762,27.34 229.826429,26.34 C229.693095,25.34 229.333095,24.36 228.746429,23.4 C228.133095,22.6 227.173095,22.02 225.866429,21.66 C224.559762,21.3 223.159762,21.0133333 221.666429,20.8 C221.053095,20.5866667 220.586429,20.2666667 220.266429,19.84 C219.946429,19.4133333 219.786429,18.9866667 219.786429,18.56 C219.786429,18.1333333 219.939762,17.74 220.246429,17.38 C220.553095,17.02 221.013095,16.7866667 221.626429,16.68 C221.973095,16.6533333 222.326429,16.7 222.686429,16.82 C223.046429,16.94 223.366429,17.12 223.646429,17.36 C223.926429,17.6 224.139762,17.88 224.286429,18.2 C224.433095,18.52 224.466429,18.84 224.386429,19.16 C225.293095,19.3466667 226.259762,19.4266667 227.286429,19.4 C228.313095,19.3733333 229.253095,19.2933333 230.106429,19.16 C230.106429,17.72 229.839762,16.42 229.306429,15.26 C228.773095,14.1 227.879762,13.2533333 226.626429,12.72 C225.933095,12.56 225.173095,12.4333333 224.346429,12.34 C223.519762,12.2466667 222.693095,12.2 221.866429,12.2 C221.039762,12.2 220.259762,12.24 219.526429,12.32 C218.793095,12.4 218.173095,12.5066667 217.666429,12.64 C216.359762,12.9866667 215.353095,13.6533333 214.646429,14.64 C213.939762,15.6266667 213.566429,16.7 213.526429,17.86 C213.486429,19.02 213.806429,20.14 214.486429,21.22 C215.166429,22.3 216.253095,23.0933333 217.746429,23.6 C218.493095,23.92 219.253095,24.1466667 220.026429,24.28 C220.799762,24.4133333 221.493095,24.5666667 222.106429,24.74 C222.719762,24.9133333 223.213095,25.16 223.586429,25.48 C223.959762,25.8 224.106429,26.28 224.026429,26.92 C224.053095,27.6933333 223.813095,28.2266667 223.306429,28.52 C222.799762,28.8133333 222.239762,28.9266667 221.626429,28.86 C221.013095,28.7933333 220.433095,28.5666667 219.886429,28.18 C219.339762,27.7933333 219.053095,27.2933333 219.026429,26.68 C218.199762,26.68 217.226429,26.66 216.106429,26.62 C214.986429,26.58 213.986429,26.6133333 213.106429,26.72 L213.106429,26.92 C213.106429,27.9866667 213.326429,28.9466667 213.766429,29.8 C214.206429,30.6533333 214.819762,31.3733333 215.606429,31.96 C216.393095,32.5466667 217.333095,32.9866667 218.426429,33.28 C219.519762,33.5733333 220.746429,33.6933333 222.106429,33.64 Z M243.15381,33.46 C244.007143,33.3933333 244.800476,33.2266667 245.53381,32.96 C246.267143,32.6933333 246.860476,32.24 247.31381,31.6 C247.500476,31.4133333 247.65381,31.1133333 247.77381,30.7 C247.89381,30.2866667 247.99381,29.7933333 248.07381,29.22 C248.15381,28.6466667 248.220476,28.0266667 248.27381,27.36 C248.327143,26.6933333 248.380476,26.0133333 248.43381,25.32 C248.140476,25.24 247.767143,25.1933333 247.31381,25.18 C246.860476,25.1666667 246.380476,25.1733333 245.87381,25.2 C245.367143,25.2266667 244.887143,25.2466667 244.43381,25.26 C243.980476,25.2733333 243.620476,25.2666667 243.35381,25.24 C243.27381,25.5866667 243.160476,25.98 243.01381,26.42 C242.867143,26.86 242.660476,27.1733333 242.39381,27.36 C242.07381,27.5733333 241.647143,27.7133333 241.11381,27.78 C240.580476,27.8466667 240.060476,27.82 239.55381,27.7 C239.047143,27.58 238.61381,27.3466667 238.25381,27 C237.89381,26.6533333 237.740476,26.1733333 237.79381,25.56 C237.847143,24.6266667 237.87381,23.7333333 237.87381,22.88 C237.87381,22.0266667 237.927143,21.1866667 238.03381,20.36 C238.11381,19.9333333 238.23381,19.6666667 238.39381,19.56 C238.740476,19.1333333 239.19381,18.84 239.75381,18.68 C240.79381,18.4133333 241.63381,18.54 242.27381,19.06 C242.91381,19.58 243.300476,20.3066667 243.43381,21.24 C243.780476,21.2933333 244.17381,21.3466667 244.61381,21.4 C245.05381,21.4533333 245.507143,21.4933333 245.97381,21.52 C246.440476,21.5466667 246.89381,21.56 247.33381,21.56 C247.77381,21.56 248.167143,21.52 248.51381,21.44 C248.487143,20.56 248.467143,19.74 248.45381,18.98 C248.440476,18.22 248.380476,17.5333333 248.27381,16.92 C248.167143,16.3066667 248.01381,15.7733333 247.81381,15.32 C247.61381,14.8666667 247.327143,14.5066667 246.95381,14.24 C246.39381,13.7066667 245.727143,13.3066667 244.95381,13.04 C244.180476,12.7733333 243.367143,12.6133333 242.51381,12.56 C241.95381,12.5066667 241.427143,12.5 240.93381,12.54 C240.440476,12.58 239.927143,12.5733333 239.39381,12.52 C238.75381,12.52 238.120476,12.56 237.49381,12.64 C236.867143,12.72 236.280476,12.86 235.73381,13.06 C235.187143,13.26 234.707143,13.5066667 234.29381,13.8 C233.880476,14.0933333 233.580476,14.44 233.39381,14.84 C233.31381,15.1066667 233.19381,15.4933333 233.03381,16 C232.87381,16.5066667 232.780476,16.9066667 232.75381,17.2 C232.59381,18.16 232.51381,19.12 232.51381,20.08 C232.620476,20.96 232.65381,21.9333333 232.61381,23 C232.57381,24.0666667 232.580476,25.1266667 232.63381,26.18 C232.687143,27.2333333 232.847143,28.24 233.11381,29.2 C233.380476,30.16 233.87381,30.96 234.59381,31.6 C235.527143,32.5333333 236.67381,33.12 238.03381,33.36 C238.780476,33.36 239.607143,33.3933333 240.51381,33.46 C241.420476,33.5266667 242.300476,33.5266667 243.15381,33.46 Z M262.56119,33.08 C262.827857,33.0533333 263.094524,33.02 263.36119,32.98 C263.627857,32.94 263.814524,32.92 263.92119,32.92 C264.24119,32.8933333 264.507857,32.8733333 264.72119,32.86 C264.934524,32.8466667 265.134524,32.84 265.32119,32.84 C265.507857,32.84 265.707857,32.8466667 265.92119,32.86 C266.134524,32.8733333 266.40119,32.8933333 266.72119,32.92 C266.827857,29.4 266.847857,26 266.78119,22.72 C266.714524,19.44 266.68119,16.16 266.68119,12.88 C266.04119,12.9333333 265.507857,12.9466667 265.08119,12.92 C264.654524,12.8933333 264.267857,12.8733333 263.92119,12.86 C263.574524,12.8466667 263.234524,12.8533333 262.90119,12.88 C262.567857,12.9066667 262.174524,12.9866667 261.72119,13.12 L261.72119,13.28 C261.587857,14.16 261.527857,15.04 261.54119,15.92 C261.554524,16.8 261.58119,17.6866667 261.62119,18.58 C261.66119,19.4733333 261.694524,20.3733333 261.72119,21.28 C261.747857,22.1866667 261.734524,23.0933333 261.68119,24 C261.627857,24.72 261.44119,25.26 261.12119,25.62 C260.80119,25.98 260.44119,26.22 260.04119,26.34 C259.64119,26.46 259.234524,26.4866667 258.82119,26.42 C258.407857,26.3533333 258.094524,26.2666667 257.88119,26.16 C257.854524,26.1333333 257.827857,26.12 257.80119,26.12 C257.774524,26.12 257.747857,26.1066667 257.72119,26.08 C257.507857,25.92 257.34119,25.6933333 257.22119,25.4 C257.10119,25.1066667 257.007857,24.7733333 256.94119,24.4 C256.874524,24.0266667 256.827857,23.6466667 256.80119,23.26 C256.774524,22.8733333 256.747857,22.52 256.72119,22.2 C256.667857,21.48 256.634524,20.7066667 256.62119,19.88 C256.607857,19.0533333 256.607857,18.2266667 256.62119,17.4 C256.634524,16.5733333 256.64119,15.7733333 256.64119,15 C256.64119,14.2266667 256.614524,13.5333333 256.56119,12.92 C255.627857,12.92 254.794524,12.9133333 254.06119,12.9 C253.327857,12.8866667 252.494524,12.9466667 251.56119,13.08 C251.614524,13.9866667 251.627857,15.04 251.60119,16.24 C251.574524,17.44 251.547857,18.6866667 251.52119,19.98 C251.494524,21.2733333 251.474524,22.5533333 251.46119,23.82 C251.447857,25.0866667 251.46119,26.2533333 251.50119,27.32 C251.54119,28.3866667 251.634524,29.3 251.78119,30.06 C251.927857,30.82 252.134524,31.32 252.40119,31.56 C252.96119,32.04 253.587857,32.3733333 254.28119,32.56 C254.974524,32.7466667 255.687857,32.8266667 256.42119,32.8 C257.154524,32.7733333 257.867857,32.64 258.56119,32.4 C259.254524,32.16 259.88119,31.84 260.44119,31.44 C260.574524,31.3333333 260.74119,31.2266667 260.94119,31.12 C261.14119,31.0133333 261.307857,30.92 261.44119,30.84 C261.467857,31.2133333 261.474524,31.5466667 261.46119,31.84 C261.447857,32.1333333 261.467857,32.5066667 261.52119,32.96 C261.52119,33.04 261.627857,33.0866667 261.84119,33.1 C262.054524,33.1133333 262.294524,33.1066667 262.56119,33.08 Z M280.768571,33.48 C281.621905,33.4266667 282.408571,33.2666667 283.128571,33 C283.848571,32.7333333 284.435238,32.28 284.888571,31.64 C285.075238,31.48 285.228571,31.1933333 285.348571,30.78 C285.468571,30.3666667 285.568571,29.8733333 285.648571,29.3 C285.728571,28.7266667 285.795238,28.1066667 285.848571,27.44 C285.901905,26.7733333 285.955238,26.0933333 286.008571,25.4 C285.715238,25.32 285.341905,25.2733333 284.888571,25.26 C284.435238,25.2466667 283.961905,25.2533333 283.468571,25.28 C282.975238,25.3066667 282.501905,25.3266667 282.048571,25.34 C281.595238,25.3533333 281.235238,25.3466667 280.968571,25.32 C281.021905,26.4133333 280.855238,27.2333333 280.468571,27.78 C280.081905,28.3266667 279.608571,28.6533333 279.048571,28.76 C278.488571,28.8666667 277.915238,28.7733333 277.328571,28.48 C276.741905,28.1866667 276.288571,27.7333333 275.968571,27.12 C275.675238,26.64 275.508571,26.1466667 275.468571,25.64 C275.428571,25.1333333 275.395238,24.48 275.368571,23.68 L275.368571,22.96 C275.635238,23.0133333 276.061905,23.0533333 276.648571,23.08 C277.235238,23.1066667 277.895238,23.12 278.628571,23.12 C279.361905,23.12 280.128571,23.1066667 280.928571,23.08 C281.728571,23.0533333 282.481905,23.0133333 283.188571,22.96 C283.895238,22.9066667 284.508571,22.8533333 285.028571,22.8 C285.548571,22.7466667 285.901905,22.6933333 286.088571,22.64 C286.168571,21.52 286.168571,20.4133333 286.088571,19.32 C286.008571,18.2266667 285.775238,17.2266667 285.388571,16.32 C285.001905,15.4133333 284.435238,14.64 283.688571,14 C282.941905,13.36 281.955238,12.9333333 280.728571,12.72 C279.768571,12.48 278.781905,12.3733333 277.768571,12.4 C276.755238,12.4266667 275.795238,12.58 274.888571,12.86 C273.981905,13.14 273.168571,13.5533333 272.448571,14.1 C271.728571,14.6466667 271.195238,15.3066667 270.848571,16.08 C270.528571,16.96 270.321905,17.86 270.228571,18.78 C270.135238,19.7 270.048571,20.6533333 269.968571,21.64 C269.915238,22.7333333 269.941905,23.8266667 270.048571,24.92 C270.155238,26.0133333 270.355238,27.0466667 270.648571,28.02 C270.941905,28.9933333 271.328571,29.8866667 271.808571,30.7 C272.288571,31.5133333 272.888571,32.1733333 273.608571,32.68 C274.248571,33.0533333 274.941905,33.2933333 275.688571,33.4 C276.435238,33.4 277.255238,33.4266667 278.148571,33.48 C279.041905,33.5333333 279.915238,33.5333333 280.768571,33.48 Z M280.808571,19.88 C280.461905,19.8533333 279.941905,19.84 279.248571,19.84 C278.235238,19.84 277.468571,19.8466667 276.948571,19.86 C276.428571,19.8733333 276.048571,19.86 275.808571,19.82 C275.568571,19.78 275.441905,19.7 275.428571,19.58 C275.415238,19.46 275.435238,19.2533333 275.488571,18.96 C275.541905,18.6133333 275.628571,18.28 275.748571,17.96 C275.868571,17.64 276.048571,17.36 276.288571,17.12 C276.528571,16.88 276.848571,16.6933333 277.248571,16.56 C277.648571,16.4266667 278.168571,16.36 278.808571,16.36 C279.101905,16.36 279.355238,16.3933333 279.568571,16.46 C279.781905,16.5266667 279.995238,16.6266667 280.208571,16.76 C280.688571,17 281.068571,17.36 281.348571,17.84 C281.628571,18.32 281.768571,18.8266667 281.768571,19.36 L281.768571,19.78 L281.768571,19.78 C281.768571,19.8466667 281.695238,19.8866667 281.548571,19.9 C281.401905,19.9133333 281.155238,19.9066667 280.808571,19.88 Z" id="AnimalRescue" fill="#FFFFFF" fill-rule="nonzero"></path>
            <path d="M13.4209449,30.7753997 C14.3152572,31.8634354 15.8358534,32.1031571 16.9504266,32.1190795 C18.0579231,32.1332328 19.4706004,32.0129297 19.9323521,30.8585504 C21.529907,26.8549328 24.3791452,24.5567891 28.07139,22.8088553 C29.3911861,22.1843405 30.9683956,20.3895238 30.9781721,19.1015726 C30.9878564,17.7968143 29.4539914,16.0117281 28.1510023,15.2386036 C26.2084605,14.0833396 23.9218164,13.3473675 21.6988621,12.9351523 C15.9092737,11.8621545 11.8295821,15.4093279 11.7384702,21.4669446 C11.7075098,23.5722494 12.0224209,25.6872847 12.1268016,27.0884624 C12.6973569,28.8080896 12.7981993,30.017313 13.4209449,30.7753997" id="Fill-3" fill="#9BE979"></path>
            <path d="M12.3044257,2.19234773 C15.2987353,3.03977717 17.5075363,7.28930851 16.5398037,10.4304588 C15.8179849,12.7701778 14.2602362,13.2372371 12.422075,12.723295 C9.64271878,11.9466321 7.51883769,7.73690694 8.30965389,4.68509946 C8.85721007,2.57006419 10.3494997,1.63948405 12.3044257,2.19234773" id="Fill-5" fill="#9BE979"></path>
            <path d="M5.69164536,9.8572497 C8.9601754,10.2314278 11.5201554,12.8037919 11.1335931,15.1346652 C10.6798026,17.8724461 8.74610659,17.9432126 6.8761005,17.7733729 C3.81987011,17.4964988 1.50845766,15.1213965 1.87732831,12.615376 C2.28688972,9.8377889 4.23827734,9.89970963 5.69164536,9.8572497" id="Fill-7" fill="#9BE979"></path>
            <path d="M24.392237,10.114663 C23.5094243,10.2659265 21.7951046,11.0868185 20.4523093,10.6834492 C17.5685724,9.81655893 16.1337806,5.1565816 17.4456155,2.18792482 C18.3611578,0.117118641 19.9321752,-0.465820817 21.9136386,0.363916985 C24.5948063,1.48733597 26.1888228,6.279116 24.392237,10.114663" id="Fill-9" fill="#9BE979"></path>
            <g id="Group-13" transform="translate(0.000000, 19.430087)">
                <mask id="mask-2" fill="white">
                    <use xlink:href="#path-1"></use>
                </mask>
                <g id="Clip-12"></g>
                <path d="M6.29802624,-0.890311847 C8.97300184,-0.50994164 11.0287701,1.43525391 10.7766643,3.34860451 C10.5449038,5.11334536 8.10788076,6.28187802 5.46828844,5.89531574 C2.71989255,5.49283098 0.721622083,3.58567246 1.03122574,1.66347603 C1.33375274,-0.202991728 3.55582242,-1.28041246 6.29802624,-0.890311847" id="Fill-11" fill="#9BE979" mask="url(#mask-2)"></path>
            </g>
        </g>
    </g>
</svg>